<svg id="Слой_1" data-name="Слой 1" xmlns="http://www.w3.org/2000/svg" xmlns:xlink="http://www.w3.org/1999/xlink" viewBox="0 0 1920 1080"><defs><style>.cls-1{fill:url(#Безымянный_градиент_102);}.cls-2{fill:url(#Безымянный_градиент_54);}.cls-3{fill:url(#Безымянный_градиент_102-2);}.cls-4{fill:url(#Безымянный_градиент_54-2);}.cls-5{fill:url(#Безымянный_градиент_102-3);}.cls-6{fill:url(#Безымянный_градиент_54-3);}.cls-7{fill:url(#Безымянный_градиент_102-4);}.cls-8{fill:url(#Безымянный_градиент_54-4);}.cls-9{fill:url(#Безымянный_градиент_102-5);}.cls-10{fill:url(#Безымянный_градиент_54-5);}.cls-11{fill:url(#Безымянный_градиент_102-6);}.cls-12{fill:url(#Безымянный_градиент_54-6);}.cls-13{fill:url(#Безымянный_градиент_102-7);}.cls-14{fill:url(#Безымянный_градиент_54-7);}.cls-15{fill:url(#Безымянный_градиент_102-8);}.cls-16{fill:url(#Безымянный_градиент_54-8);}.cls-17{fill:url(#Безымянный_градиент_102-9);}.cls-18{fill:url(#Безымянный_градиент_54-9);}.cls-19{fill:url(#Безымянный_градиент_102-10);}.cls-20{fill:url(#Безымянный_градиент_54-10);}.cls-21{fill:url(#Безымянный_градиент_102-11);}.cls-22{fill:url(#Безымянный_градиент_54-11);}.cls-23{fill:url(#Безымянный_градиент_102-12);}.cls-24{fill:url(#Безымянный_градиент_54-12);}.cls-25{fill:url(#Безымянный_градиент_102-13);}.cls-26{fill:url(#Безымянный_градиент_54-13);}.cls-27{fill:url(#Безымянный_градиент_102-14);}.cls-28{fill:url(#Безымянный_градиент_54-14);}.cls-29{fill:url(#Безымянный_градиент_102-15);}.cls-30{fill:url(#Безымянный_градиент_54-15);}.cls-31{fill:url(#Безымянный_градиент_102-16);}.cls-32{fill:url(#Безымянный_градиент_54-16);}.cls-33{fill:url(#Безымянный_градиент_102-17);}.cls-34{fill:url(#Безымянный_градиент_54-17);}.cls-35{fill:url(#Безымянный_градиент_102-18);}.cls-36{fill:url(#Безымянный_градиент_54-18);}.cls-37{fill:url(#Безымянный_градиент_102-19);}.cls-38{fill:url(#Безымянный_градиент_54-19);}.cls-39{fill:url(#Безымянный_градиент_102-20);}.cls-40{fill:url(#Безымянный_градиент_54-20);}.cls-41{fill:url(#Безымянный_градиент_102-21);}.cls-42{fill:url(#Безымянный_градиент_54-21);}.cls-43{fill:url(#Безымянный_градиент_102-22);}.cls-44{fill:url(#Безымянный_градиент_54-22);}.cls-45{fill:url(#Безымянный_градиент_102-23);}.cls-46{fill:url(#Безымянный_градиент_54-23);}.cls-47{fill:url(#Безымянный_градиент_102-24);}.cls-48{fill:url(#Безымянный_градиент_54-24);}.cls-49{fill:url(#Безымянный_градиент_102-25);}.cls-50{fill:url(#Безымянный_градиент_54-25);}.cls-51{fill:url(#Безымянный_градиент_102-26);}.cls-52{fill:url(#Безымянный_градиент_54-26);}.cls-53{fill:url(#Безымянный_градиент_102-27);}.cls-54{fill:url(#Безымянный_градиент_54-27);}.cls-55{fill:url(#Безымянный_градиент_102-28);}.cls-56{fill:url(#Безымянный_градиент_54-28);}.cls-57{fill:url(#Безымянный_градиент_102-29);}.cls-58{fill:url(#Безымянный_градиент_54-29);}.cls-59{fill:url(#Безымянный_градиент_102-30);}.cls-60{fill:url(#Безымянный_градиент_54-30);}</style><radialGradient id="Безымянный_градиент_102" cx="960" cy="540" r="778.85" gradientTransform="translate(0 270) scale(1 0.5)" gradientUnits="userSpaceOnUse"><stop offset="0" stop-color="#ff8f3f" stop-opacity="0.7"/><stop offset="0.07" stop-color="#e78239" stop-opacity="0.7"/><stop offset="0.4" stop-color="#854c22" stop-opacity="0.7"/><stop offset="0.68" stop-color="#3d2411" stop-opacity="0.7"/><stop offset="0.88" stop-color="#110c06" stop-opacity="0.7"/><stop offset="1" stop-color="#000302" stop-opacity="0.7"/></radialGradient><radialGradient id="Безымянный_градиент_54" cx="960" cy="540" r="778.85" gradientUnits="userSpaceOnUse"><stop offset="0.4" stop-color="#e58200" stop-opacity="0.7"/><stop offset="0.43" stop-color="#d47c08" stop-opacity="0.7"/><stop offset="0.54" stop-color="#a46b21" stop-opacity="0.7"/><stop offset="0.65" stop-color="#7e5e34" stop-opacity="0.7"/><stop offset="0.76" stop-color="#635542" stop-opacity="0.7"/><stop offset="0.88" stop-color="#524f4a" stop-opacity="0.7"/><stop offset="1" stop-color="#4d4d4d" stop-opacity="0.7"/></radialGradient><radialGradient id="Безымянный_градиент_102-2" cx="953" cy="951" r="630.76" gradientTransform="translate(0 475.5) scale(1 0.5)" xlink:href="#Безымянный_градиент_102"/><radialGradient id="Безымянный_градиент_54-2" cx="953" cy="951" r="630.76" xlink:href="#Безымянный_градиент_54"/><radialGradient id="Безымянный_градиент_102-3" cx="953" cy="663" r="630.76" gradientTransform="translate(0 331.5) scale(1 0.5)" xlink:href="#Безымянный_градиент_102"/><radialGradient id="Безымянный_градиент_54-3" cx="953" cy="663" r="630.76" xlink:href="#Безымянный_градиент_54"/><radialGradient id="Безымянный_градиент_102-4" cx="953" cy="699" r="630.76" gradientTransform="translate(0 349.5) scale(1 0.5)" xlink:href="#Безымянный_градиент_102"/><radialGradient id="Безымянный_градиент_54-4" cx="953" cy="699" r="630.76" xlink:href="#Безымянный_градиент_54"/><radialGradient id="Безымянный_градиент_102-5" cx="953" cy="735" r="630.76" gradientTransform="translate(0 367.5) scale(1 0.5)" xlink:href="#Безымянный_градиент_102"/><radialGradient id="Безымянный_градиент_54-5" cx="953" cy="735" r="630.76" xlink:href="#Безымянный_градиент_54"/><radialGradient id="Безымянный_градиент_102-6" cx="953" cy="807" r="630.76" gradientTransform="translate(0 403.5) scale(1 0.5)" xlink:href="#Безымянный_градиент_102"/><radialGradient id="Безымянный_градиент_54-6" cx="953" cy="807" r="630.76" xlink:href="#Безымянный_градиент_54"/><radialGradient id="Безымянный_градиент_102-7" cx="953" cy="843" r="630.76" gradientTransform="translate(0 421.5) scale(1 0.5)" xlink:href="#Безымянный_градиент_102"/><radialGradient id="Безымянный_градиент_54-7" cx="953" cy="843" r="630.76" xlink:href="#Безымянный_градиент_54"/><radialGradient id="Безымянный_градиент_102-8" cx="953" cy="915" r="630.76" gradientTransform="translate(0 457.5) scale(1 0.5)" xlink:href="#Безымянный_градиент_102"/><radialGradient id="Безымянный_градиент_54-8" cx="953" cy="915" r="630.76" xlink:href="#Безымянный_градиент_54"/><radialGradient id="Безымянный_градиент_102-9" cx="953" cy="771" r="630.76" gradientTransform="translate(0 385.5) scale(1 0.5)" xlink:href="#Безымянный_градиент_102"/><radialGradient id="Безымянный_градиент_54-9" cx="953" cy="771" r="630.76" xlink:href="#Безымянный_градиент_54"/><radialGradient id="Безымянный_градиент_102-10" cx="953" cy="879" r="630.76" gradientTransform="translate(0 439.5) scale(1 0.5)" xlink:href="#Безымянный_градиент_102"/><radialGradient id="Безымянный_градиент_54-10" cx="953" cy="879" r="630.76" xlink:href="#Безымянный_градиент_54"/><radialGradient id="Безымянный_градиент_102-11" cx="953" cy="630" r="630.76" gradientTransform="translate(0 315) scale(1 0.5)" xlink:href="#Безымянный_градиент_102"/><radialGradient id="Безымянный_градиент_54-11" cx="953" cy="630" r="630.76" xlink:href="#Безымянный_градиент_54"/><radialGradient id="Безымянный_градиент_102-12" cx="953" cy="595" r="630.76" gradientTransform="translate(0 297.5) scale(1 0.5)" xlink:href="#Безымянный_градиент_102"/><radialGradient id="Безымянный_градиент_54-12" cx="953" cy="595" r="630.76" xlink:href="#Безымянный_градиент_54"/><radialGradient id="Безымянный_градиент_102-13" cx="953" cy="291" r="630.76" gradientTransform="translate(0 145.5) scale(1 0.5)" xlink:href="#Безымянный_градиент_102"/><radialGradient id="Безымянный_градиент_54-13" cx="953" cy="291" r="630.76" xlink:href="#Безымянный_градиент_54"/><radialGradient id="Безымянный_градиент_102-14" cx="953" cy="449" r="630.76" gradientTransform="translate(0 224.5) scale(1 0.5)" xlink:href="#Безымянный_градиент_102"/><radialGradient id="Безымянный_градиент_54-14" cx="953" cy="449" r="630.76" xlink:href="#Безымянный_градиент_54"/><radialGradient id="Безымянный_градиент_102-15" cx="953" cy="363" r="630.76" gradientTransform="translate(0 181.5) scale(1 0.5)" xlink:href="#Безымянный_градиент_102"/><radialGradient id="Безымянный_градиент_54-15" cx="953" cy="363" r="630.76" xlink:href="#Безымянный_градиент_54"/><radialGradient id="Безымянный_градиент_102-16" cx="953" cy="327" r="630.76" gradientTransform="translate(0 163.5) scale(1 0.5)" xlink:href="#Безымянный_градиент_102"/><radialGradient id="Безымянный_градиент_54-16" cx="953" cy="327" r="630.76" xlink:href="#Безымянный_градиент_54"/><radialGradient id="Безымянный_градиент_102-17" cx="953" cy="559" r="630.76" gradientTransform="translate(0 279.5) scale(1 0.5)" xlink:href="#Безымянный_градиент_102"/><radialGradient id="Безымянный_градиент_54-17" cx="953" cy="559" r="630.76" xlink:href="#Безымянный_градиент_54"/><radialGradient id="Безымянный_градиент_102-18" cx="953" cy="488" r="630.76" gradientTransform="translate(0 244) scale(1 0.5)" xlink:href="#Безымянный_градиент_102"/><radialGradient id="Безымянный_градиент_54-18" cx="953" cy="488" r="630.76" xlink:href="#Безымянный_градиент_54"/><radialGradient id="Безымянный_градиент_102-19" cx="953" cy="404" r="630.76" gradientTransform="translate(0 202) scale(1 0.5)" xlink:href="#Безымянный_градиент_102"/><radialGradient id="Безымянный_градиент_54-19" cx="953" cy="404" r="630.76" xlink:href="#Безымянный_градиент_54"/><radialGradient id="Безымянный_градиент_102-20" cx="953" cy="526" r="630.76" gradientTransform="translate(0 263) scale(1 0.5)" xlink:href="#Безымянный_градиент_102"/><radialGradient id="Безымянный_градиент_54-20" cx="953" cy="526" r="630.76" xlink:href="#Безымянный_градиент_54"/><radialGradient id="Безымянный_градиент_102-21" cx="953" cy="1019" r="630.76" gradientTransform="translate(0 509.5) scale(1 0.5)" xlink:href="#Безымянный_градиент_102"/><radialGradient id="Безымянный_градиент_54-21" cx="953" cy="1019" r="630.76" xlink:href="#Безымянный_градиент_54"/><radialGradient id="Безымянный_градиент_102-22" cx="953" cy="984" r="630.76" gradientTransform="translate(0 492) scale(1 0.5)" xlink:href="#Безымянный_градиент_102"/><radialGradient id="Безымянный_градиент_54-22" cx="953" cy="984" r="630.76" xlink:href="#Безымянный_градиент_54"/><radialGradient id="Безымянный_градиент_102-23" cx="953" cy="257" r="630.76" gradientTransform="translate(0 128.5) scale(1 0.5)" xlink:href="#Безымянный_градиент_102"/><radialGradient id="Безымянный_градиент_54-23" cx="953" cy="257" r="630.76" xlink:href="#Безымянный_градиент_54"/><radialGradient id="Безымянный_градиент_102-24" cx="953" cy="221" r="630.76" gradientTransform="translate(0 110.5) scale(1 0.5)" xlink:href="#Безымянный_градиент_102"/><radialGradient id="Безымянный_градиент_54-24" cx="953" cy="221" r="630.76" xlink:href="#Безымянный_градиент_54"/><radialGradient id="Безымянный_градиент_102-25" cx="953" cy="182" r="630.76" gradientTransform="translate(0 91) scale(1 0.5)" xlink:href="#Безымянный_градиент_102"/><radialGradient id="Безымянный_градиент_54-25" cx="953" cy="182" r="630.76" xlink:href="#Безымянный_градиент_54"/><radialGradient id="Безымянный_градиент_102-26" cx="953" cy="145" r="630.76" gradientTransform="translate(0 72.5) scale(1 0.5)" xlink:href="#Безымянный_градиент_102"/><radialGradient id="Безымянный_градиент_54-26" cx="953" cy="145" r="630.76" xlink:href="#Безымянный_градиент_54"/><radialGradient id="Безымянный_градиент_102-27" cx="953" cy="108" r="630.76" gradientTransform="translate(0 54) scale(1 0.5)" xlink:href="#Безымянный_градиент_102"/><radialGradient id="Безымянный_градиент_54-27" cx="953" cy="108" r="630.76" xlink:href="#Безымянный_градиент_54"/><radialGradient id="Безымянный_градиент_102-28" cx="953" cy="44" r="630.76" gradientTransform="translate(0 22) scale(1 0.5)" xlink:href="#Безымянный_градиент_102"/><radialGradient id="Безымянный_градиент_54-28" cx="953" cy="44" r="630.76" xlink:href="#Безымянный_градиент_54"/><radialGradient id="Безымянный_градиент_102-29" cx="953" cy="1054" r="630.76" gradientTransform="translate(0 527) scale(1 0.5)" xlink:href="#Безымянный_градиент_102"/><radialGradient id="Безымянный_градиент_54-29" cx="953" cy="1054" r="630.76" xlink:href="#Безымянный_градиент_54"/><radialGradient id="Безымянный_градиент_102-30" cx="953" cy="76" r="630.76" gradientTransform="translate(0 38) scale(1 0.5)" xlink:href="#Безымянный_градиент_102"/><radialGradient id="Безымянный_градиент_54-30" cx="953" cy="76" r="630.76" xlink:href="#Безымянный_градиент_54"/></defs><title>Монтажная область 1</title><rect class="cls-1" width="1920" height="1080"/><path class="cls-2" d="M1919.75.25v1079.5H.25V.25h1919.5M1920,0H0V1080H1920V0Z"/><rect class="cls-3" x="61" y="943" width="1784" height="16"/><path class="cls-4" d="M1844.75,943.25v15.5H61.25v-15.5h1783.5m.25-.25H61v16H1845V943Z"/><rect class="cls-5" x="61" y="655" width="1784" height="16"/><path class="cls-6" d="M1844.75,655.25v15.5H61.25v-15.5h1783.5m.25-.25H61v16H1845V655Z"/><rect class="cls-7" x="61" y="691" width="1784" height="16"/><path class="cls-8" d="M1844.75,691.25v15.5H61.25v-15.5h1783.5m.25-.25H61v16H1845V691Z"/><rect class="cls-9" x="61" y="727" width="1784" height="16"/><path class="cls-10" d="M1844.75,727.25v15.5H61.25v-15.5h1783.5m.25-.25H61v16H1845V727Z"/><rect class="cls-11" x="61" y="799" width="1784" height="16"/><path class="cls-12" d="M1844.75,799.25v15.5H61.25v-15.5h1783.5m.25-.25H61v16H1845V799Z"/><rect class="cls-13" x="61" y="835" width="1784" height="16"/><path class="cls-14" d="M1844.75,835.25v15.5H61.25v-15.5h1783.5m.25-.25H61v16H1845V835Z"/><rect class="cls-15" x="61" y="907" width="1784" height="16"/><path class="cls-16" d="M1844.75,907.25v15.5H61.25v-15.5h1783.5m.25-.25H61v16H1845V907Z"/><rect class="cls-17" x="61" y="763" width="1784" height="16"/><path class="cls-18" d="M1844.75,763.25v15.5H61.25v-15.5h1783.5m.25-.25H61v16H1845V763Z"/><rect class="cls-19" x="61" y="871" width="1784" height="16"/><path class="cls-20" d="M1844.75,871.25v15.5H61.25v-15.5h1783.5m.25-.25H61v16H1845V871Z"/><rect class="cls-21" x="61" y="622" width="1784" height="16"/><path class="cls-22" d="M1844.75,622.25v15.5H61.25v-15.5h1783.5m.25-.25H61v16H1845V622Z"/><rect class="cls-23" x="61" y="587" width="1784" height="16"/><path class="cls-24" d="M1844.75,587.25v15.5H61.25v-15.5h1783.5m.25-.25H61v16H1845V587Z"/><rect class="cls-25" x="61" y="283" width="1784" height="16"/><path class="cls-26" d="M1844.75,283.25v15.5H61.25v-15.5h1783.5m.25-.25H61v16H1845V283Z"/><rect class="cls-27" x="61" y="441" width="1784" height="16"/><path class="cls-28" d="M1844.75,441.25v15.5H61.25v-15.5h1783.5m.25-.25H61v16H1845V441Z"/><rect class="cls-29" x="61" y="355" width="1784" height="16"/><path class="cls-30" d="M1844.75,355.25v15.5H61.25v-15.5h1783.5m.25-.25H61v16H1845V355Z"/><rect class="cls-31" x="61" y="319" width="1784" height="16"/><path class="cls-32" d="M1844.75,319.25v15.5H61.25v-15.5h1783.5m.25-.25H61v16H1845V319Z"/><rect class="cls-33" x="61" y="551" width="1784" height="16"/><path class="cls-34" d="M1844.75,551.25v15.5H61.25v-15.5h1783.5m.25-.25H61v16H1845V551Z"/><rect class="cls-35" x="61" y="480" width="1784" height="16"/><path class="cls-36" d="M1844.75,480.25v15.5H61.25v-15.5h1783.5m.25-.25H61v16H1845V480Z"/><rect class="cls-37" x="61" y="396" width="1784" height="16"/><path class="cls-38" d="M1844.75,396.25v15.5H61.25v-15.5h1783.5m.25-.25H61v16H1845V396Z"/><rect class="cls-39" x="61" y="518" width="1784" height="16"/><path class="cls-40" d="M1844.75,518.25v15.5H61.25v-15.5h1783.5m.25-.25H61v16H1845V518Z"/><rect class="cls-41" x="61" y="1011" width="1784" height="16"/><path class="cls-42" d="M1844.75,1011.25v15.5H61.25v-15.5h1783.5m.25-.25H61v16H1845v-16Z"/><rect class="cls-43" x="61" y="976" width="1784" height="16"/><path class="cls-44" d="M1844.75,976.25v15.5H61.25v-15.5h1783.5m.25-.25H61v16H1845V976Z"/><rect class="cls-45" x="61" y="249" width="1784" height="16"/><path class="cls-46" d="M1844.75,249.25v15.5H61.25v-15.5h1783.5m.25-.25H61v16H1845V249Z"/><rect class="cls-47" x="61" y="213" width="1784" height="16"/><path class="cls-48" d="M1844.75,213.25v15.5H61.25v-15.5h1783.5m.25-.25H61v16H1845V213Z"/><rect class="cls-49" x="61" y="174" width="1784" height="16"/><path class="cls-50" d="M1844.75,174.25v15.5H61.25v-15.5h1783.5m.25-.25H61v16H1845V174Z"/><rect class="cls-51" x="61" y="137" width="1784" height="16"/><path class="cls-52" d="M1844.75,137.25v15.5H61.25v-15.5h1783.5m.25-.25H61v16H1845V137Z"/><rect class="cls-53" x="61" y="100" width="1784" height="16"/><path class="cls-54" d="M1844.75,100.25v15.5H61.25v-15.5h1783.5m.25-.25H61v16H1845V100Z"/><rect class="cls-55" x="61" y="36" width="1784" height="16"/><path class="cls-56" d="M1844.75,36.25v15.5H61.25V36.25h1783.5M1845,36H61V52H1845V36Z"/><rect class="cls-57" x="61" y="1046" width="1784" height="16"/><path class="cls-58" d="M1844.75,1046.25v15.5H61.25v-15.5h1783.5m.25-.25H61v16H1845v-16Z"/><rect class="cls-59" x="61" y="68" width="1784" height="16"/><path class="cls-60" d="M1844.75,68.25v15.5H61.25V68.25h1783.5M1845,68H61V84H1845V68Z"/></svg>