<svg id="main_svg" xmlns="http://www.w3.org/2000/svg" width="800" height="800"><g id="svg_g_shape_path"/><g id="svg_g_edges"><path id="svg_path_edges" d="M 241.36393981172333 0 L 264.89536921338635 48.96456448847196 M 295.79057840278176 0 L 264.89536921338635 48.96456448847196 M 543.3052684302212 18.042168829250315 L 610.9524777878247 31.48690312180441 M 543.3052684302212 18.042168829250315 L 514.2523751258179 0 M 543.3052684302212 18.042168829250315 L 550.2248537963284 61.87140770212559 M 164.13001384928964 0 L 163.92997809570699 5.199967333722231 M 730.6678771749934 0 L 741.3083648844197 72.10532310826704 M 490.9527691583349 0 L 518.4916455611525 69.37903025891669 M 96.17966222224396 52.75932282888297 L 0 27.95802952372983 M 456.2733889127127 0 L 469.48446686889577 78.20428092209998 M 379.13262073369253 0 L 369.9597369620531 48.52106134174472 M 643.9717612523499 0 L 708.1246836991081 85.1865762616211 M 264.89536921338635 48.96456448847196 L 261.8226232602071 72.69285258620576 M 550.2248537963284 61.87140770212559 L 591.2960784390319 52.08147332116226 M 96.17966222224396 52.75932282888297 L 58.25250601019398 98.33934210834869 M 643.9506042073326 -1.734723475976807e-18 L 635.7156570318696 13.474205944084645 M 96.17966222224396 52.75932282888297 L 122.94274314722051 50.51982040169513 M 550.2248537963284 61.87140770212559 L 536.0597159048729 71.66301599808092 M 635.7156570318696 13.474205944084645 L 610.9524777878247 31.48690312180441 M 635.7156570318696 13.474205944084645 L 653.017516462898 91.18175412772902 M 610.9524777878247 31.48690312180441 L 602.9711398101505 42.86566485082593 M 591.2960784390319 52.08147332116226 L 602.9711398101505 42.86566485082593 M 591.2960784390319 52.08147332116226 L 574.484410953359 102.6388886517279 M 602.9711398101505 42.86566485082593 L 610.6093948627091 98.20007185088006 M 163.92997809570699 5.199967333722231 L 209.48027493448853 65.87690634491582 M 163.92997809570699 5.199967333722231 L 135.53991871370636 43.415537879493954 M 122.94274314722051 50.51982040169513 L 105.72447023866738 85.94885703831243 M 122.94274314722051 50.51982040169513 L 135.53991871370636 43.415537879493954 M 469.48446686889577 78.20428092209998 L 458.43859345084945 84.84153932078435 M 469.48446686889577 78.20428092209998 L 496.09796589241665 89.97654709026881 M 135.53991871370636 43.415537879493954 L 144.5528649042161 93.78274665001268 M 458.43859345084945 84.84153932078435 L 408.0667292832036 84.72381628116587 M 536.0597159048729 71.66301599808092 L 518.4916455611525 69.37903025891669 M 536.0597159048729 71.66301599808092 L 558.6350876134366 108.08080471468794 M 458.43859345084945 84.84153932078435 L 460.7802209711132 135.2313206817078 M 518.4916455611525 69.37903025891669 L 514.915010396316 73.63903881811083 M 514.915010396316 73.63903881811083 L 535.4084021851864 127.89121563718837 M 610.6093948627091 98.20007185088006 L 653.017516462898 91.18175412772902 M 514.915010396316 73.63903881811083 L 496.09796589241665 89.97654709026881 M 105.72447023866738 85.94885703831243 L 74.06809880238866 106.78928539995849 M 105.72447023866738 85.94885703831243 L 119.91482708124597 124.35856713843619 M 209.48027493448853 65.87690634491582 L 261.8226232602071 72.69285258620576 M 741.3083648844197 72.10532310826704 L 708.1246836991081 85.1865762616211 M 369.9597369620531 48.52106134174472 L 277.1529754085118 84.44311798445291 M 741.3083648844197 72.10532310826704 L 800 109.45454545454544 M 209.48027493448853 65.87690634491582 L 208.0571142412301 71.80190421531677 M 610.6093948627091 98.20007185088006 L 602.6540559480877 114.16238182341907 M 261.8226232602071 72.69285258620576 L 277.1529754085118 84.44311798445291 M 208.0571142412301 71.80190421531677 L 234.36847392429573 144.60875073552748 M 208.0571142412301 71.80190421531677 L 176.98221074355672 122.67264541315468 M 708.1246836991081 85.1865762616211 L 675.9952858871349 129.67385742683283 M 144.5528649042161 93.78274665001268 L 119.91482708124597 124.35856713843619 M 144.5528649042161 93.78274665001268 L 176.98221074355672 122.67264541315468 M 58.25250601019398 98.33934210834869 L 0 55.88042292033158 M 496.09796589241665 89.97654709026881 L 494.20743940060004 110.51358124772332 M 653.017516462898 91.18175412772902 L 675.9952858871349 129.67385742683283 M 574.484410953359 102.6388886517279 L 602.6540559480877 114.16238182341907 M 574.484410953359 102.6388886517279 L 558.6350876134366 108.08080471468794 M 408.0667292832036 84.72381628116587 L 455.0954403118307 142.39580381417673 M 408.0667292832036 84.72381628116587 L 375.53102519807805 66.07267044264256 M 58.25250601019398 98.33934210834869 L 62.823199247038545 104.71008780576454 M 369.9597369620531 48.52106134174472 L 375.53102519807805 66.07267044264256 M 277.1529754085118 84.44311798445291 L 276.14399806491946 104.4890304447396 M 74.06809880238866 106.78928539995849 L 114.76884392254911 144.69337726693155 M 74.06809880238866 106.78928539995849 L 62.823199247038545 104.71008780576454 M 558.6350876134366 108.08080471468794 L 551.878065977216 121.62875438351628 M 62.823199247038545 104.71008780576454 L 54.779079384607584 125.99075477529465 M 494.20743940060004 110.51358124772332 L 511.9702116198702 123.61232290588343 M 494.20743940060004 110.51358124772332 L 460.7802209711132 135.2313206817078 M 602.6540559480877 114.16238182341907 L 623.751432152989 159.5886667081202 M 375.53102519807805 66.07267044264256 L 367.8001544978607 109.47665616888064 M 54.779079384607584 125.99075477529465 L 0 137.43451110785279 M 511.9702116198702 123.61232290588343 L 499.19118782817253 146.9293839513529 M 511.9702116198702 123.61232290588343 L 531.5005268661608 130.28245444657884 M 276.14399806491946 104.4890304447396 L 234.36847392429573 144.60875073552748 M 276.14399806491946 104.4890304447396 L 287.02960969666015 118.77894610256934 M 287.02960969666015 118.77894610256934 L 318.61245229304734 136.99747524664417 M 54.779079384607584 125.99075477529465 L 60.5643847335399 158.898200152009 M 287.02960969666015 118.77894610256934 L 281.5108584184812 162.4746793885162 M 119.91482708124597 124.35856713843619 L 114.76884392254911 144.69337726693155 M 551.878065977216 121.62875438351628 L 535.4084021851864 127.89121563718837 M 551.878065977216 121.62875438351628 L 567.9830634110023 142.1338557539495 M 499.19118782817253 146.9293839513529 L 528.0022443499053 152.09759288323278 M 384.629151695507 131.4551481266285 L 453.44442660113975 156.80129786687712 M 535.4084021851864 127.89121563718837 L 531.5005268661608 130.28245444657884 M 176.98221074355672 122.67264541315468 L 177.36991676771493 162.2461387075991 M 499.19118782817253 146.9293839513529 L 456.61091226386964 175.48571338945192 M 318.61245229304734 136.99747524664417 L 358.42491944217403 120.42636029768062 M 531.5005268661608 130.28245444657884 L 528.0022443499053 152.09759288323278 M 367.8001544978607 109.47665616888064 L 384.629151695507 131.4551481266285 M 367.8001544978607 109.47665616888064 L 358.42491944217403 120.42636029768062 M 384.629151695507 131.4551481266285 L 400.26734097532244 203.049676974263 M 567.9830634110023 142.1338557539495 L 623.751432152989 159.5886667081202 M 567.9830634110023 142.1338557539495 L 538.7356212150572 192.6582468784515 M 318.61245229304734 136.99747524664417 L 311.4530066203992 169.92899929133608 M 358.42491944217403 120.42636029768062 L 349.3921326285736 213.36719009332293 M 0 143.1597121507705 L 57.671775143941616 161.45229971402463 M 460.7802209711132 135.2313206817078 L 455.0954403118307 142.39580381417673 M 528.0022443499053 152.09759288323278 L 529.5118775053271 193.15708848373058 M 281.5108584184812 162.4746793885162 L 311.4530066203992 169.92899929133608 M 234.36847392429573 144.60875073552748 L 231.57908987730005 150.67598168567466 M 281.5108584184812 162.4746793885162 L 254.22459701170982 173.5844600622092 M 60.5643847335399 158.898200152009 L 114.88901359502822 159.2454672879622 M 455.0954403118307 142.39580381417673 L 453.44442660113975 156.80129786687712 M 114.76884392254911 144.69337726693155 L 117.94560113384352 157.10360525496264 M 675.9952858871349 129.67385742683283 L 674.6963319367691 158.2182576699653 M 60.5643847335399 158.898200152009 L 57.671775143941616 161.45229971402463 M 57.671775143941616 161.45229971402463 L 43.1968048902741 200.84434627590505 M 231.57908987730005 150.67598168567466 L 178.65260986739062 161.99801115292573 M 231.57908987730005 150.67598168567466 L 254.22459701170982 173.5844600622092 M 178.65260986739062 161.99801115292573 L 258.4732943799552 213.4585263768161 M 311.4530066203992 169.92899929133608 L 327.49702872606383 201.27195033881372 M 453.44442660113975 156.80129786687712 L 456.61091226386964 175.48571338945192 M 117.94560113384352 157.10360525496264 L 170.97137770763175 169.01711294762475 M 117.94560113384352 157.10360525496264 L 114.88901359502822 159.2454672879622 M 114.88901359502822 159.2454672879622 L 93.51635000050955 208.93904397622538 M 173.60061584290088 178.41241273445232 L 257.51095539346426 215.18222629746322 M 254.22459701170982 173.5844600622092 L 259.9021096995316 211.05485585802165 M 623.751432152989 159.5886667081202 L 636.3703705130581 172.05757342451733 M 178.65260986739062 161.99801115292573 L 177.36991676771493 162.2461387075991 M 177.36991676771493 162.2461387075991 L 170.97137770763175 169.01711294762475 M 173.60061584290088 178.41241273445232 L 239.5388674724615 241.07971912446044 M 170.97137770763175 169.01711294762475 L 171.94269119210708 177.22323814225328 M 43.1968048902741 200.84434627590505 L 93.51635000050955 208.93904397622538 M 674.6963319367691 158.2182576699653 L 636.3703705130581 172.05757342451733 M 674.6963319367691 158.2182576699653 L 682.5220257515074 161.935462231966 M 456.61091226386964 175.48571338945192 L 456.87641484093723 202.9889707194186 M 682.5220257515074 161.935462231966 L 734.2718583953862 179.85930115672485 M 682.5220257515074 161.935462231966 L 677.2271038943301 253.65227640851214 M 173.60061584290088 178.41241273445232 L 171.94269119210708 177.22323814225328 M 327.49702872606383 201.27195033881372 L 259.9021096995316 211.05485585802165 M 171.94269119210708 177.22323814225328 L 170.35661639514248 184.43587425101927 M 538.7356212150572 192.6582468784515 L 602.6171331402271 206.7453489654152 M 170.35661639514248 184.43587425101927 L 201.98362479055305 250.86145414519842 M 162.349269306831 199.24267356357132 L 106.73398826786803 241.37472943145747 M 170.35661639514248 184.43587425101927 L 162.349269306831 199.24267356357132 M 538.7356212150572 192.6582468784515 L 529.5118775053271 193.15708848373058 M 162.349269306831 199.24267356357132 L 162.8863666105888 240.84350832141908 M 43.1968048902741 200.84434627590505 L 0 227.94478739408282 M 734.2718583953862 179.85930115672485 L 800 157.94369744664866 M 636.3703705130581 172.05757342451733 L 629.1811756746939 182.85900311676613 M 529.5118775053271 193.15708848373058 L 492.92777713833965 214.7804152758888 M 93.51635000050955 208.93904397622538 L 106.73398826786803 241.37472943145747 M 629.1811756746939 182.85900311676613 L 671.1675361855848 257.14256402065 M 629.1811756746939 182.85900311676613 L 606.0186151092157 205.42514528072854 M 327.49702872606383 201.27195033881372 L 349.3921326285736 213.36719009332293 M 734.2718583953862 179.85930115672485 L 731.2842400954117 209.30175993325963 M 259.9021096995316 211.05485585802165 L 258.4732943799552 213.4585263768161 M 400.26734097532244 203.049676974263 L 351.8387545286097 216.12004373876346 M 400.26734097532244 203.049676974263 L 449.558753302439 206.70023877170738 M 258.4732943799552 213.4585263768161 L 257.51095539346426 215.18222629746322 M 255.4140443563999 221.35671498789165 L 292.17128111281636 247.0864443826784 M 257.51095539346426 215.18222629746322 L 255.4140443563999 221.35671498789165 M 162.8863666105888 240.84350832141908 L 127.84556754635585 263.4693477367933 M 162.8863666105888 240.84350832141908 L 180.43880850799067 252.45156926446484 M 731.2842400954117 209.30175993325963 L 761.242882893285 266.50250274898826 M 731.2842400954117 209.30175993325963 L 708.5791907850839 247.05236344666963 M 255.4140443563999 221.35671498789165 L 239.5388674724615 241.07971912446044 M 606.0186151092157 205.42514528072854 L 635.9689704134227 269.275030086377 M 606.0186151092157 205.42514528072854 L 602.6171331402271 206.7453489654152 M 602.6171331402271 206.7453489654152 L 569.4944361516206 269.0890127201923 M 292.17128111281636 247.0864443826784 L 276.96514205638766 271.05532758013027 M 292.17128111281636 247.0864443826784 L 344.75073385719713 250.95998075162584 M 91.27591150584823 253.96250459504654 L 0 228.67678210436074 M 180.43880850799067 252.45156926446484 L 147.0389407930764 285.16349275214907 M 708.5791907850839 247.05236344666963 L 677.2271038943301 253.65227640851214 M 180.43880850799067 252.45156926446484 L 197.38185900615568 254.3560634420885 M 349.3921326285736 213.36719009332293 L 351.8387545286097 216.12004373876346 M 456.87641484093723 202.9889707194186 L 492.92777713833965 214.7804152758888 M 456.87641484093723 202.9889707194186 L 449.558753302439 206.70023877170738 M 708.5791907850839 247.05236344666963 L 718.6331522350101 280.6745274475899 M 449.558753302439 206.70023877170738 L 431.10213472284806 269.4527419423165 M 351.8387545286097 216.12004373876346 L 344.75073385719713 250.95998075162584 M 276.96514205638766 271.05532758013027 L 331.6770794197532 264.93528068711794 M 201.98362479055305 250.86145414519842 L 237.72926619547815 245.28292529439983 M 677.2271038943301 253.65227640851214 L 671.1675361855848 257.14256402065 M 492.92777713833965 214.7804152758888 L 517.5421225000648 268.31661643764085 M 201.98362479055305 250.86145414519842 L 197.38185900615568 254.3560634420885 M 239.5388674724615 241.07971912446044 L 237.72926619547815 245.28292529439983 M 197.38185900615568 254.3560634420885 L 184.74432973658824 316.11970235725374 M 106.73398826786803 241.37472943145747 L 106.39908310190397 245.37416232464497 M 671.1675361855848 257.14256402065 L 664.7016399589005 267.9309068356173 M 237.72926619547815 245.28292529439983 L 252.32183156929935 285.6161201136311 M 635.9689704134227 269.275030086377 L 578.7441831032307 280.9575348793171 M 106.39908310190397 245.37416232464497 L 91.27591150584823 253.96250459504654 M 106.39908310190397 245.37416232464497 L 127.84556754635585 263.4693477367933 M 276.96514205638766 271.05532758013027 L 254.43659461440498 286.4236027096606 M 91.27591150584823 253.96250459504654 L 69.9607625760517 295.7815873918821 M 664.7016399589005 267.9309068356173 L 696.2621884935475 285.5445051136507 M 761.242882893285 266.50250274898826 L 800 268.3610019720805 M 761.242882893285 266.50250274898826 L 734.4047659480219 293.43859381469287 M 664.7016399589005 267.9309068356173 L 648.760716994754 279.33901852656516 M 635.9689704134227 269.275030086377 L 648.760716994754 279.33901852656516 M 127.84556754635585 263.4693477367933 L 136.05582995104933 280.3986022850536 M 431.10213472284806 269.4527419423165 L 366.3358003345734 285.81430322353367 M 696.2621884935475 285.5445051136507 L 718.6331522350101 280.6745274475899 M 696.2621884935475 285.5445051136507 L 683.2916931646535 315.361249774526 M 133.09735279501257 284.2131433306667 L 82.55052841503668 301.740375046308 M 331.6770794197532 264.93528068711794 L 286.77697364268795 313.71941416711815 M 569.4944361516206 269.0890127201923 L 517.5421225000648 268.31661643764085 M 331.6770794197532 264.93528068711794 L 345.07599146386775 254.58110089012064 M 344.75073385719713 250.95998075162584 L 345.07599146386775 254.58110089012064 M 431.10213472284806 269.4527419423165 L 445.5900705736386 300.63034756183265 M 718.6331522350101 280.6745274475899 L 734.4047659480219 293.43859381469287 M 569.4944361516206 269.0890127201923 L 578.7441831032307 280.9575348793171 M 345.07599146386775 254.58110089012064 L 366.3358003345734 285.81430322353367 M 136.05582995104933 280.3986022850536 L 147.0389407930764 285.16349275214907 M 136.05582995104933 280.3986022850536 L 133.09735279501257 284.2131433306667 M 133.09735279501257 284.2131433306667 L 112.62744069094185 329.35128473092703 M 648.760716994754 279.33901852656516 L 646.5769599885404 312.1824452396641 M 578.7441831032307 280.9575348793171 L 585.5670656621885 304.4120589873563 M 147.0389407930764 285.16349275214907 L 184.74432973658824 316.11970235725374 M 511.03130857277404 285.9656560406363 L 445.5900705736386 300.63034756183265 M 517.5421225000648 268.31661643764085 L 511.03130857277404 285.9656560406363 M 82.55052841503668 301.740375046308 L 112.62744069094185 329.35128473092703 M 82.55052841503668 301.740375046308 L 69.9607625760517 295.7815873918821 M 252.32183156929935 285.6161201136311 L 205.8644855745836 322.55208236430707 M 252.32183156929935 285.6161201136311 L 254.43659461440498 286.4236027096606 M 254.43659461440498 286.4236027096606 L 286.77697364268795 313.71941416711815 M 734.4047659480219 293.43859381469287 L 737.7093564960454 336.1959765248976 M 69.9607625760517 295.7815873918821 L 39.32102218465392 308.74146051137404 M 511.03130857277404 285.9656560406363 L 523.7276537683271 368.0805802488221 M 585.5670656621885 304.4120589873563 L 642.4652933581724 317.43297678214157 M 366.3358003345734 285.81430322353367 L 368.42869657805414 322.23712918142087 M 445.5900705736386 300.63034756183265 L 434.43914565857364 343.2126324177724 M 585.5670656621885 304.4120589873563 L 548.1716181979967 372.99596494874413 M 683.2916931646535 315.361249774526 L 646.5769599885404 312.1824452396641 M 683.2916931646535 315.361249774526 L 727.203974978586 340.0865262876414 M 39.32102218465392 308.74146051137404 L 100.86185296757664 348.44689817447045 M 205.8644855745836 322.55208236430707 L 272.76480191034614 348.7735654588422 M 286.77697364268795 313.71941416711815 L 295.3505556576624 341.9086945875877 M 646.5769599885404 312.1824452396641 L 642.4652933581724 317.43297678214157 M 39.32102218465392 308.74146051137404 L 0 316.6338587327577 M 113.01131512439349 331.21842694954603 L 161.65593228311894 342.923972655786 M 112.62744069094185 329.35128473092703 L 113.01131512439349 331.21842694954603 M 642.4652933581724 317.43297678214157 L 639.6523196193585 350.1456193261334 M 113.01131512439349 331.21842694954603 L 100.86185296757664 348.44689817447045 M 184.74432973658824 316.11970235725374 L 186.06992566250906 318.7902718518621 M 368.42869657805414 322.23712918142087 L 311.67004584817727 344.9982486741453 M 186.06992566250906 318.7902718518621 L 203.87294520984236 323.35712109477265 M 186.06992566250906 318.7902718518621 L 161.65593228311894 342.923972655786 M 205.8644855745836 322.55208236430707 L 203.87294520984236 323.35712109477265 M 203.87294520984236 323.35712109477265 L 224.84270000670705 387.7662943647342 M 368.42869657805414 322.23712918142087 L 377.1205654045974 330.287281057353 M 377.1205654045974 330.287281057353 L 426.25427837218143 343.63687379650213 M 377.1205654045974 330.287281057353 L 366.2685133001029 386.9199772076218 M 100.86185296757664 348.44689817447045 L 91.83110184787722 381.4959708762784 M 639.6523196193585 350.1456193261334 L 695.6806921574502 362.48918079127185 M 737.7093564960454 336.1959765248976 L 800 335.6832277476246 M 272.76480191034614 348.7735654588422 L 224.84270000670705 387.7662943647342 M 161.65593228311894 342.923972655786 L 158.26176713690285 363.58549518088154 M 272.76480191034614 348.7735654588422 L 294.24966086754034 342.9437125991071 M 727.203974978586 340.0865262876414 L 695.6806921574502 362.48918079127185 M 311.67004584817727 344.9982486741453 L 295.3505556576624 341.9086945875877 M 311.67004584817727 344.9982486741453 L 328.1314490703435 376.3344038340084 M 737.7093564960454 336.1959765248976 L 734.4111381503105 339.09030023440766 M 727.203974978586 340.0865262876414 L 734.4111381503105 339.09030023440766 M 295.3505556576624 341.9086945875877 L 294.24966086754034 342.9437125991071 M 426.25427837218143 343.63687379650213 L 384.74220061849337 411.2318403143721 M 294.24966086754034 342.9437125991071 L 283.3909113767234 399.8170809411299 M 426.25427837218143 343.63687379650213 L 434.43914565857364 343.2126324177724 M 734.4111381503105 339.09030023440766 L 747.7958409999958 425.9290407613473 M 639.6523196193585 350.1456193261334 L 601.8141697751038 406.564545176044 M 695.6806921574502 362.48918079127185 L 679.1884825886152 439.54399266798987 M 434.43914565857364 343.2126324177724 L 482.2358393818456 383.4199210428964 M 158.26176713690285 363.58549518088154 L 205.72088199100338 416.69562091263265 M 158.26176713690285 363.58549518088154 L 127.13224096897709 388.72150203679183 M 328.1314490703435 376.3344038340084 L 366.2685133001029 386.9199772076218 M 328.1314490703435 376.3344038340084 L 315.21784135100586 427.17538237141537 M 366.2685133001029 386.9199772076218 L 376.43030577895934 410.3885154556225 M 283.3909113767234 399.8170809411299 L 223.91802051361725 393.5389091522738 M 127.13224096897709 388.72150203679183 L 94.8311240565445 384.1010230873639 M 91.83110184787722 381.4959708762784 L 0 380.4994070128917 M 127.13224096897709 388.72150203679183 L 137.67070269234839 405.73902707128315 M 91.83110184787722 381.4959708762784 L 94.8311240565445 384.1010230873639 M 94.8311240565445 384.1010230873639 L 95.84729382617094 427.41572824223255 M 283.3909113767234 399.8170809411299 L 303.6454330927413 432.9844215296019 M 137.67070269234839 405.73902707128315 L 193.1539153579906 432.2975732330789 M 224.84270000670705 387.7662943647342 L 223.91802051361725 393.5389091522738 M 137.67070269234839 405.73902707128315 L 124.97797536933565 437.7770475681525 M 472.9860818335747 394.97933985428 L 399.73154608630784 419.4793813641972 M 223.91802051361725 393.5389091522738 L 209.43270175952568 414.7521619947437 M 523.7276537683271 368.0805802488221 L 548.1716181979967 372.99596494874413 M 523.7276537683271 368.0805802488221 L 487.4266121746052 382.8656519983617 M 548.1716181979967 372.99596494874413 L 591.8639624820964 404.71979691874657 M 405.11224997507844 436.90523456534 L 460.1044803515937 444.0346488707059 M 95.84729382617094 427.41572824223255 L 124.97797536933565 437.7770475681525 M 384.74220061849337 411.2318403143721 L 376.43030577895934 410.3885154556225 M 384.74220061849337 411.2318403143721 L 399.73154608630784 419.4793813641972 M 376.43030577895934 410.3885154556225 L 357.38977859857687 425.56030358971145 M 487.4266121746052 382.8656519983617 L 524.6261750132181 490.209143528226 M 487.4266121746052 382.8656519983617 L 482.2358393818456 383.4199210428964 M 482.2358393818456 383.4199210428964 L 472.9860818335747 394.97933985428 M 95.84729382617094 427.41572824223255 L 64.61187427650039 467.92049924875 M 472.9860818335747 394.97933985428 L 460.1044803515937 444.0346488707059 M 399.73154608630784 419.4793813641972 L 405.11224997507844 436.90523456534 M 357.38977859857687 425.56030358971145 L 315.21784135100586 427.17538237141537 M 124.97797536933565 437.7770475681525 L 141.3649196577422 465.9748288644921 M 209.43270175952568 414.7521619947437 L 263.1964126441473 445.22891878985456 M 357.38977859857687 425.56030358971145 L 369.4857296355648 486.5647780179964 M 405.11224997507844 436.90523456534 L 408.52298937541207 495.8423548127768 M 209.43270175952568 414.7521619947437 L 205.72088199100338 416.69562091263265 M 315.21784135100586 427.17538237141537 L 303.6454330927413 432.9844215296019 M 205.72088199100338 416.69562091263265 L 193.1539153579906 432.2975732330789 M 263.1964126441473 445.22891878985456 L 302.47767221948004 435.33755984379917 M 263.1964126441473 445.22891878985456 L 250.28927642702942 481.6856302508334 M 460.1044803515937 444.0346488707059 L 458.25382097878594 473.31585078716296 M 747.7958409999958 425.9290407613473 L 679.1884825886152 439.54399266798987 M 591.8639624820964 404.71979691874657 L 525.6115967627082 490.1957992976883 M 591.8639624820964 404.71979691874657 L 601.8141697751038 406.564545176044 M 303.6454330927413 432.9844215296019 L 302.47767221948004 435.33755984379917 M 747.7958409999958 425.9290407613473 L 800 446.4292463435452 M 221.86451730019303 464.72316161629084 L 193.07580697244285 432.54667481212624 M 302.47767221948004 435.33755984379917 L 312.3755069646647 479.37121520860154 M 601.8141697751038 406.564545176044 L 653.3042397315379 455.3252442195227 M 221.86451730019303 464.72316161629084 L 250.28927642702942 481.6856302508334 M 221.86451730019303 464.72316161629084 L 213.40896453026346 506.3444196816869 M 193.1539153579906 432.2975732330789 L 193.07580697244285 432.54667481212624 M 193.07580697244285 432.54667481212624 L 172.3296685715968 461.96235545706054 M 64.61187427650039 467.92049924875 L 0 431.4208471862213 M 141.3649196577422 465.9748288644921 L 170.22991904387897 462.72516576210205 M 679.1884825886152 439.54399266798987 L 653.3042397315379 455.3252442195227 M 141.3649196577422 465.9748288644921 L 135.17780296083646 470.7674910131449 M 135.17780296083646 470.7674910131449 L 77.03533565526304 487.47635218336916 M 743.0827300088736 496.6900195954382 L 653.5826969670866 466.63519452540584 M 135.17780296083646 470.7674910131449 L 140.16172794724275 540.0190027074736 M 170.22991904387897 462.72516576210205 L 172.3296685715968 461.96235545706054 M 170.22991904387897 462.72516576210205 L 152.80492809134782 537.7021973639214 M 172.3296685715968 461.96235545706054 L 203.46143950090197 510.6113205243202 M 250.28927642702942 481.6856302508334 L 253.12198242181879 497.3647864797948 M 316.80396394324464 483.1411999018446 L 369.4857296355648 486.5647780179964 M 458.25382097878594 473.31585078716296 L 511.28828179935863 495.4824152308207 M 312.3755069646647 479.37121520860154 L 261.23193609245385 503.7734701720728 M 458.25382097878594 473.31585078716296 L 412.11501774416837 498.1176325344985 M 64.61187427650039 467.92049924875 L 77.03533565526304 487.47635218336916 M 312.3755069646647 479.37121520860154 L 316.80396394324464 483.1411999018446 M 316.80396394324464 483.1411999018446 L 317.12420286248084 538.2547594222464 M 743.0827300088736 496.6900195954382 L 707.9026625850781 543.986345202127 M 743.0827300088736 496.6900195954382 L 800 483.537428865782 M 253.12198242181879 497.3647864797948 L 213.40896453026346 506.3444196816869 M 369.4857296355648 486.5647780179964 L 377.55413125485313 492.055849729579 M 648.2000768842777 471.5151812921802 L 564.0399074060716 518.5256484930019 M 253.12198242181879 497.3647864797948 L 261.23193609245385 503.7734701720728 M 213.40896453026346 506.3444196816869 L 203.46143950090197 510.6113205243202 M 507.2649754705585 504.0503476992511 L 434.70940818642083 543.9155042570105 M 653.3042397315379 455.3252442195227 L 653.3490762034761 466.33436258476854 M 377.55413125485313 492.055849729579 L 343.30202481833044 542.1075104325779 M 377.55413125485313 492.055849729579 L 408.52298937541207 495.8423548127768 M 77.03533565526304 487.47635218336916 L 75.62057747060484 515.7209427237169 M 261.23193609245385 503.7734701720728 L 263.79045003592427 517.2406367224343 M 263.79045003592427 517.2406367224343 L 208.24456400707248 550.4971243872938 M 525.6115967627082 490.1957992976883 L 564.0399074060716 518.5256484930019 M 525.6115967627082 490.1957992976883 L 524.6261750132181 490.209143528226 M 524.6261750132181 490.209143528226 L 511.28828179935863 495.4824152308207 M 648.2000768842777 471.5151812921802 L 622.7942660753127 542.570130354177 M 203.46143950090197 510.6113205243202 L 196.81293703298493 534.1066160308467 M 648.2000768842777 471.5151812921802 L 653.3490762034761 466.33436258476854 M 653.3490762034761 466.33436258476854 L 653.5826969670866 466.63519452540584 M 653.5826969670866 466.63519452540584 L 688.8630146020707 538.3926051929365 M 511.28828179935863 495.4824152308207 L 507.2649754705585 504.0503476992511 M 507.2649754705585 504.0503476992511 L 501.8504300504181 541.4948188102064 M 263.79045003592427 517.2406367224343 L 274.85648390312093 538.1570116004964 M 408.52298937541207 495.8423548127768 L 412.11501774416837 498.1176325344985 M 501.8504300504181 541.4948188102064 L 563.5769318543689 552.916887785643 M 412.11501774416837 498.1176325344985 L 423.32863996837943 544.5234299912838 M 622.7942660753127 542.570130354177 L 568.0780697289 544.1601108158582 M 564.0399074060716 518.5256484930019 L 568.0780697289 544.1601108158582 M 622.7942660753127 542.570130354177 L 629.9202044355987 563.7103815405762 M 75.62057747060484 515.7209427237169 L 2.0589643848489843 552.3650807276814 M 196.81293703298493 534.1066160308467 L 152.80492809134782 537.7021973639214 M 75.62057747060484 515.7209427237169 L 97.23696016463899 539.1467235642491 M 274.85648390312093 538.1570116004964 L 225.88567635660385 571.1878882318539 M 501.8504300504181 541.4948188102064 L 496.5802846156829 559.403751882637 M 343.30202481833044 542.1075104325779 L 317.12420286248084 538.2547594222464 M 274.85648390312093 538.1570116004964 L 296.26178619731627 551.702010657672 M 684.3514382609787 544.5897617324741 L 629.9202044355987 563.7103815405762 M 434.70940818642083 543.9155042570105 L 496.5802846156829 559.403751882637 M 708.5371929124303 544.4250954656499 L 800 549.8032311253804 M 343.30202481833044 542.1075104325779 L 374.1462379616155 579.9387250743541 M 196.81293703298493 534.1066160308467 L 208.24456400707248 550.4971243872938 M 317.12420286248084 538.2547594222464 L 296.26178619731627 551.702010657672 M 152.80492809134782 537.7021973639214 L 148.48209636432287 539.4136542935049 M 148.48209636432287 539.4136542935049 L 174.5370938477946 586.9120424237599 M 148.48209636432287 539.4136542935049 L 140.16172794724275 540.0190027074736 M 140.16172794724275 540.0190027074736 L 124.4149414964016 546.8562008995092 M 688.8630146020707 538.3926051929365 L 707.9026625850781 543.986345202127 M 97.23696016463899 539.1467235642491 L 124.4149414964016 546.8562008995092 M 97.23696016463899 539.1467235642491 L 74.14501646572215 588.3051209616283 M 688.8630146020707 538.3926051929365 L 684.3514382609787 544.5897617324741 M 707.9026625850781 543.986345202127 L 708.5371929124303 544.4250954656499 M 708.5371929124303 544.4250954656499 L 721.5928143359255 590.3447417480573 M 568.0780697289 544.1601108158582 L 566.8492034946446 551.4361058162268 M 684.3514382609787 544.5897617324741 L 673.1119671488487 585.8318806181562 M 208.24456400707248 550.4971243872938 L 210.4374446378195 556.497183221306 M 536.2399360666483 568.6708163278238 L 563.5769318543689 552.916887785643 M 434.70940818642083 543.9155042570105 L 423.32863996837943 544.5234299912838 M 536.2399360666483 568.6708163278238 L 499.8626450937149 568.2305472966086 M 456.80157827883176 583.6294098210752 L 499.0809821404105 571.0827069339689 M 629.9202044355987 563.7103815405762 L 626.5362793744782 574.1681748724789 M 124.4149414964016 546.8562008995092 L 134.31820466937177 618.4259017960874 M 210.4374446378195 556.497183221306 L 174.5370938477946 586.9120424237599 M 536.2399360666483 568.6708163278238 L 537.8110084682094 630.6286146448006 M 563.5769318543689 552.916887785643 L 566.8492034946446 551.4361058162268 M 296.26178619731627 551.702010657672 L 295.66123473118927 572.1339155990781 M 496.5802846156829 559.403751882637 L 499.8626450937149 568.2305472966086 M 295.66123473118927 572.1339155990781 L 366.5718741533149 588.853442102067 M 566.8492034946446 551.4361058162268 L 574.5956527182763 566.2951320340611 M 2.0589643848489843 552.3650807276814 L 74.14501646572215 588.3051209616283 M 210.4374446378195 556.497183221306 L 225.88567635660385 571.1878882318539 M 423.32863996837943 544.5234299912838 L 414.3560355816887 568.2881676892014 M 626.5362793744782 574.1681748724789 L 596.9511282613286 578.6914609464282 M 574.5956527182763 566.2951320340611 L 596.9511282613286 578.6914609464282 M 456.80157827883176 583.6294098210752 L 475.4206914289016 606.8034742344632 M 456.80157827883176 583.6294098210752 L 414.3560355816887 568.2881676892014 M 574.5956527182763 566.2951320340611 L 553.1716190641206 627.4952361241965 M 499.8626450937149 568.2305472966086 L 499.0809821404105 571.0827069339689 M 626.5362793744782 574.1681748724789 L 640.1461111795758 594.6521570768296 M 499.0809821404105 571.0827069339689 L 499.3509275474736 602.2119998635291 M 596.9511282613286 578.6914609464282 L 600.4202393498721 640.6308375268547 M 225.88567635660385 571.1878882318539 L 232.73153285965566 590.626369071236 M 295.66123473118927 572.1339155990781 L 287.8293772068389 593.612288839621 M 174.5370938477946 586.9120424237599 L 174.2091080480651 587.872465552588 M 174.2091080480651 587.872465552588 L 194.36675772071803 603.8670978587791 M 174.2091080480651 587.872465552588 L 134.31820466937177 618.4259017960874 M 673.1119671488487 585.8318806181562 L 655.0201979908826 593.9902105748137 M 673.1119671488487 585.8318806181562 L 693.3978701264508 605.5338455411207 M 2.0589643848489843 552.3650807276814 L 0 552.7631356500774 M 721.5928143359255 590.3447417480573 L 768.9106101811972 600.1322071632394 M 194.36675772071803 603.8670978587791 L 232.73153285965566 590.626369071236 M 721.5928143359255 590.3447417480573 L 707.4308385247866 604.7255507130006 M 74.14501646572215 588.3051209616283 L 81.08758087458624 633.5646338940851 M 655.0201979908826 593.9902105748137 L 673.8252561056528 639.9855239844107 M 655.0201979908826 593.9902105748137 L 640.1461111795758 594.6521570768296 M 194.36675772071803 603.8670978587791 L 186.09181932668344 641.4278568001434 M 374.1462379616155 579.9387250743541 L 412.1972411017883 571.137325622332 M 640.1461111795758 594.6521570768296 L 616.4345191091514 645.2573360752767 M 414.3560355816887 568.2881676892014 L 412.1972411017883 571.137325622332 M 374.1462379616155 579.9387250743541 L 366.5718741533149 588.853442102067 M 412.1972411017883 571.137325622332 L 430.0679503117725 627.2938497528231 M 475.4206914289016 606.8034742344632 L 499.3509275474736 602.2119998635291 M 475.4206914289016 606.8034742344632 L 445.497383104974 633.1324773012896 M 232.73153285965566 590.626369071236 L 240.00766905218734 599.3245624692814 M 707.4308385247866 604.7255507130006 L 693.3978701264508 605.5338455411207 M 707.4308385247866 604.7255507130006 L 710.7667453334691 611.915011684569 M 693.3978701264508 605.5338455411207 L 673.8252561056528 639.9855239844107 M 366.5718741533149 588.853442102067 L 349.8226908475981 625.5406456763432 M 710.7667453334691 611.915011684569 L 738.8786439748457 635.7475322534167 M 287.8293772068389 593.612288839621 L 250.48388956701382 602.791027152891 M 710.7667453334691 611.915011684569 L 701.6476739656014 668.9304750331621 M 287.8293772068389 593.612288839621 L 323.34033157016114 638.6109544209328 M 499.3509275474736 602.2119998635291 L 527.1595041413628 635.7313605310623 M 240.00766905218734 599.3245624692814 L 201.9727313248041 651.9972485315814 M 240.00766905218734 599.3245624692814 L 250.48388956701382 602.791027152891 M 250.48388956701382 602.791027152891 L 263.7717545994255 668.7538180709029 M 768.9106101811972 600.1322071632394 L 738.8786439748457 635.7475322534167 M 768.9106101811972 600.1322071632394 L 800 589.4409013603857 M 738.8786439748457 635.7475322534167 L 732.1947516266854 661.8671037023779 M 349.8226908475981 625.5406456763432 L 381.20633206394575 645.8182481453796 M 430.0679503117725 627.2938497528231 L 445.497383104974 633.1324773012896 M 430.0679503117725 627.2938497528231 L 407.2729974563974 647.8649034368361 M 134.31820466937177 618.4259017960874 L 133.04868938786552 622.3606827495155 M 553.1716190641206 627.4952361241965 L 600.4202393498721 640.6308375268547 M 145.1904011076593 630.878284153066 L 186.09181932668344 641.4278568001434 M 349.8226908475981 625.5406456763432 L 323.34033157016114 638.6109544209328 M 445.497383104974 633.1324773012896 L 468.2365978730196 659.7471798464538 M 553.1716190641206 627.4952361241965 L 537.8110084682094 630.6286146448006 M 673.8252561056528 639.9855239844107 L 672.4242208455198 646.2101645965345 M 133.04868938786552 622.3606827495155 L 145.1904011076593 630.878284153066 M 381.20633206394575 645.8182481453796 L 407.2729974563974 647.8649034368361 M 133.04868938786552 622.3606827495155 L 98.11491233245339 635.9364503077844 M 145.1904011076593 630.878284153066 L 156.18337953636586 702.1368184293768 M 381.20633206394575 645.8182481453796 L 367.8718192177702 698.9140478539499 M 186.09181932668344 641.4278568001434 L 200.6186631544189 651.9187332789262 M 537.8110084682094 630.6286146448006 L 527.1595041413628 635.7313605310623 M 672.4242208455198 646.2101645965345 L 629.8063913450666 650.2627436636818 M 407.2729974563974 647.8649034368361 L 414.75451962618223 701.3918530082739 M 672.4242208455198 646.2101645965345 L 701.6476739656014 668.9304750331621 M 72.58577689438113 637.2635126823785 L 0 634.4802849227191 M 322.6878183892117 640.1821435612538 L 263.7717545994255 668.7538180709029 M 527.1595041413628 635.7313605310623 L 512.4261159684609 665.492682489699 M 600.4202393498721 640.6308375268547 L 608.6110315435642 646.4184528623751 M 323.34033157016114 638.6109544209328 L 322.6878183892117 640.1821435612538 M 81.08758087458624 633.5646338940851 L 98.11491233245339 635.9364503077844 M 732.1947516266854 661.8671037023779 L 800 668.9302657554715 M 322.6878183892117 640.1821435612538 L 338.53703300368596 695.9652164379837 M 81.08758087458624 633.5646338940851 L 72.58577689438113 637.2635126823785 M 98.11491233245339 635.9364503077844 L 123.59396557213931 715.9691167883597 M 72.58577689438113 637.2635126823785 L 65.64780737023973 680.5094483897295 M 200.6186631544189 651.9187332789262 L 167.40216025804915 702.3905800796185 M 200.6186631544189 651.9187332789262 L 201.9727313248041 651.9972485315814 M 201.9727313248041 651.9972485315814 L 246.7764720148148 683.8190077342216 M 629.8063913450666 650.2627436636818 L 616.4345191091514 645.2573360752767 M 629.8063913450666 650.2627436636818 L 656.9629473515274 716.0859615222674 M 616.4345191091514 645.2573360752767 L 608.6110315435642 646.4184528623751 M 608.6110315435642 646.4184528623751 L 586.5952619197266 702.4929937616974 M 468.2365978730196 659.7471798464538 L 512.4261159684609 665.492682489699 M 468.2365978730196 659.7471798464538 L 434.5174580554703 702.67361597981 M 732.1947516266854 661.8671037023779 L 728.5802063691632 664.4426282250037 M 728.5802063691632 664.4426282250037 L 749.2939835546307 705.4149209430045 M 728.5802063691632 664.4426282250037 L 702.4190725739137 669.8068883189991 M 65.64780737023973 680.5094483897295 L 113.64247281918107 731.3649302323506 M 65.64780737023973 680.5094483897295 L 0 765.0971870714628 M 259.60182191680667 674.686373481209 L 323.86827981568473 712.8725775281473 M 263.7717545994255 668.7538180709029 L 259.60182191680667 674.686373481209 M 701.6476739656014 668.9304750331621 L 702.4190725739137 669.8068883189991 M 702.4190725739137 669.8068883189991 L 694.6410844923296 692.9472904883896 M 512.4261159684609 665.492682489699 L 530.8624145789424 725.2789728361757 M 259.60182191680667 674.686373481209 L 246.7764720148148 683.8190077342216 M 749.2939835546307 705.4149209430045 L 800 715.203452209821 M 749.2939835546307 705.4149209430045 L 721.5531795965708 728.7294038308221 M 694.6410844923296 692.9472904883896 L 656.9629473515274 716.0859615222674 M 694.6410844923296 692.9472904883896 L 721.5531795965708 728.7294038308221 M 367.8718192177702 698.9140478539499 L 338.53703300368596 695.9652164379837 M 246.7764720148148 683.8190077342216 L 241.19581233970683 711.1459214689916 M 367.8718192177702 698.9140478539499 L 376.81664570839837 703.7578655773816 M 338.53703300368596 695.9652164379837 L 323.86827981568473 712.8725775281473 M 167.40216025804915 702.3905800796185 L 156.18337953636586 702.1368184293768 M 376.81664570839837 703.7578655773816 L 350.1264606067244 773.4391090311686 M 376.81664570839837 703.7578655773816 L 401.97479193520024 709.0322195559107 M 167.40216025804915 702.3905800796185 L 188.05022920960292 718.1066763447446 M 156.18337953636586 702.1368184293768 L 123.59396557213931 715.9691167883597 M 434.5174580554703 702.67361597981 L 414.75451962618223 701.3918530082739 M 434.5174580554703 702.67361597981 L 476.55170724760507 744.5864702058128 M 414.75451962618223 701.3918530082739 L 401.97479193520024 709.0322195559107 M 188.05022920960292 718.1066763447446 L 241.19581233970683 711.1459214689916 M 586.5952619197266 702.4929937616974 L 645.6361098033572 735.739934769272 M 586.5952619197266 702.4929937616974 L 533.6846170541646 726.7314797714437 M 401.97479193520024 709.0322195559107 L 400.9652402638032 740.4553148469378 M 188.05022920960292 718.1066763447446 L 183.64896438645334 756.030110676026 M 323.86827981568473 712.8725775281473 L 316.60594581402665 735.2290636068118 M 656.9629473515274 716.0859615222674 L 645.6361098033572 735.739934769272 M 241.19581233970683 711.1459214689916 L 258.6303886568314 752.1149660733905 M 721.5531795965708 728.7294038308221 L 721.9490465129335 733.2262632289462 M 721.9490465129335 733.2262632289462 L 747.432918269847 747.0047224896331 M 123.59396557213931 715.9691167883597 L 113.64247281918107 731.3649302323506 M 721.9490465129335 733.2262632289462 L 665.2849722292176 800 M 400.9652402638032 740.4553148469378 L 457.62800705708634 774.6673888013312 M 400.9652402638032 740.4553148469378 L 361.4609662911717 794.2569271138077 M 747.432918269847 747.0047224896331 L 800 742.941117947064 M 747.432918269847 747.0047224896331 L 730.9702638780917 800 M 316.60594581402665 735.2290636068118 L 258.6303886568314 752.1149660733905 M 316.60594581402665 735.2290636068118 L 350.1264606067244 773.4391090311686 M 183.64896438645334 756.030110676026 L 251.44831742210707 774.5372653683531 M 113.64247281918107 731.3649302323506 L 88.23981245962932 800 M 183.64896438645334 756.030110676026 L 125.66467534390816 800 M 645.6361098033572 735.739934769272 L 654.5214335108602 800 M 530.8624145789424 725.2789728361757 L 476.55170724760507 744.5864702058128 M 530.8624145789424 725.2789728361757 L 533.6846170541646 726.7314797714437 M 533.6846170541646 726.7314797714437 L 566.8087509518768 800 M 476.55170724760507 744.5864702058128 L 457.62800705708634 774.6673888013312 M 258.6303886568314 752.1149660733905 L 251.44831742210707 774.5372653683531 M 350.1264606067244 773.4391090311686 L 361.4609662911717 794.2569271138077 M 457.62800705708634 774.6673888013312 L 451.7322648624663 800 M 251.44831742210707 774.5372653683531 L 252.78907047222327 800 M 361.4609662911717 794.2569271138077 L 361.9556722278816 800 M 451.7322648624663 800 L 566.8087509518768 800 M 125.66467534390816 800 L 252.78907047222327 800 M 252.78907047222327 800 L 361.9556722278816 800 M 730.9702638780917 800 L 800 800 M 800 800 L 800 742.941117947064 M 361.9556722278816 800 L 451.7322648624663 800 M 665.2849722292176 800 L 730.9702638780917 800 M 566.8087509518768 800 L 654.5214335108602 800 M 88.23981245962932 800 L 125.66467534390816 800 M 654.5214335108602 800 L 665.2849722292176 800 M 800 742.941117947064 L 800 715.203452209821 M 0 765.0971870714628 L 0 800 M 0 800 L 88.23981245962932 800 M 800 715.203452209821 L 800 668.9302657554715 M 0 634.4802849227191 L 0 765.0971870714628 M 800 668.9302657554715 L 800 589.4409013603857 M 0 552.7631356500774 L 0 634.4802849227191 M 800 589.4409013603857 L 800 549.8032311253804 M 800 549.8032311253804 L 800 483.537428865782 M 0 431.4208471862213 L 0 552.7631356500774 M 800 483.537428865782 L 800 446.4292463435452 M 0 380.4994070128917 L 0 431.4208471862213 M 800 446.4292463435452 L 800 335.6832277476246 M 0 316.6338587327577 L 0 380.4994070128917 M 800 335.6832277476246 L 800 268.3610019720805 M 0 228.67678210436074 L 0 316.6338587327577 M 800 268.3610019720805 L 800 157.94369744664866 M 0 227.94478739408282 L 0 228.67678210436074 M 0 143.1597121507705 L 0 227.94478739408282 M 0 137.43451110785279 L 0 143.1597121507705 M 0 55.88042292033158 L 0 137.43451110785279 M 800 157.94369744664866 L 800 109.45454545454544 M 643.9717612523499 0 L 643.9506042073326 0 M 456.2733889127127 0 L 379.13262073369253 0 M 0 27.95802952372983 L 0 55.88042292033158 M 490.9527691583349 0 L 456.2733889127127 0 M 730.6678771749934 0 L 643.9717612523499 0 M 800 109.45454545454544 L 800 0 M 800 0 L 730.6678771749934 0 M 514.2523751258179 0 L 490.9527691583349 0 M 379.13262073369253 0 L 295.79057840278176 0 M 241.36393981172333 0 L 164.13001384928964 0 M 164.13001384928964 0 L 0 0 M 0 0 L 0 27.95802952372983 M 295.79057840278176 0 L 241.36393981172333 0 M 643.9506042073326 -1.734723475976807e-18 L 514.2523751258179 0 " stroke="black" stroke-width="2"/></g></svg>