<svg id="main_svg" xmlns="http://www.w3.org/2000/svg" width="400" height="400"><g id="svg_g_shape_map">
        <image x="0" y="0" xmlns:xlink="http://www.w3.org/1999/xlink" xlink:href="blob:https://websvg.github.io/ae48091a-16aa-4f3f-b439-771c030bb284"/>
    </g><g id="svg_g_shape_path"/><g id="svg_g_edges"><path id="svg_path_edges" d="M 65.9 0 L 9.981690140845068 53.767605633802816 M 241.7493602619312 0 L 247.13509659874723 57.47113149194821 M 311.98988292031095 0 L 288.6941178626459 77.04254460571904 M 350.1706127745989 0 L 355.9024687454654 68.12257451881706 M 107.96000000000001 0 L 56.87540983606557 79.81967213114754 M 9.981690140845068 53.767605633802816 L 56.87540983606557 79.81967213114754 M 9.981690140845068 53.767605633802816 L 0 54.57258064516129 M 139.43765127940284 0 L 153.84399608245502 74.1894333284475 M 247.13509659874723 57.47113149194821 L 195.24091148747823 101.95545896579321 M 247.13509659874723 57.47113149194821 L 270.4444525365506 78.66664239034823 M 56.930417621188724 80.78230837080268 L 122.70044593009335 99.64977703495333 M 288.6941178626459 77.04254460571904 L 270.4444525365506 78.66664239034823 M 288.6941178626459 77.04254460571904 L 325.467543087366 97.7943116579375 M 270.4444525365506 78.66664239034823 L 264.7784748077263 95.66457557682115 M 355.9024687454654 68.12257451881706 L 400 93.60943622846045 M 355.9024687454654 68.12257451881706 L 325.467543087366 97.7943116579375 M 56.87540983606557 79.81967213114754 L 56.930417621188724 80.78230837080268 M 56.930417621188724 80.78230837080268 L 53.348581150202754 95.1332991973335 M 264.7784748077263 95.66457557682115 L 229.22678076607008 115.99908944180667 M 264.7784748077263 95.66457557682115 L 277.0722769110205 124.04336614661227 M 53.348581150202754 95.1332991973335 L 95.0340479491499 125.6117733312914 M 53.348581150202754 95.1332991973335 L 35.523016650342804 115.13271302644466 M 122.70044593009335 99.64977703495333 L 95.0340479491499 125.6117733312914 M 153.84399608245502 74.1894333284475 L 195.24091148747823 101.95545896579321 M 122.70044593009335 99.64977703495333 L 140 91 M 153.84399608245502 74.1894333284475 L 140 91 M 325.467543087366 97.7943116579375 L 324.59851730548917 105.80101447519164 M 277.0722769110205 124.04336614661227 L 251.6210308935566 130.8918552759009 M 140 91 L 140 163.31395348837208 M 229.22678076607008 115.99908944180667 L 251.6210308935566 130.8918552759009 M 324.59851730548917 105.80101447519164 L 288.1885245901639 130.71311475409837 M 229.22678076607008 115.99908944180667 L 202.2820419985518 114.94243301955105 M 277.0722769110205 124.04336614661227 L 288.1885245901639 130.71311475409837 M 324.59851730548917 105.80101447519164 L 351.3194181549954 153.33016006884515 M 251.6210308935566 130.8918552759009 L 254.31558441558442 161.8792207792208 M 35.523016650342804 115.13271302644466 L 71.85135135135135 153.04054054054055 M 35.523016650342804 115.13271302644466 L 0 127.34375 M 195.24091148747823 101.95545896579321 L 202.2820419985518 114.94243301955105 M 95.0340479491499 125.6117733312914 L 94.0873015873016 130.0873015873016 M 94.0873015873016 130.0873015873016 L 123.46969696969697 159.46969696969697 M 288.1885245901639 130.71311475409837 L 286.53767972235994 156.57635101636095 M 94.0873015873016 130.0873015873016 L 71.85135135135135 153.04054054054055 M 202.2820419985518 114.94243301955105 L 199.5215053763441 152.20967741935485 M 400 133.2368125161633 L 351.3194181549954 153.33016006884515 M 254.31558441558442 161.8792207792208 L 199.5215053763441 152.20967741935485 M 123.46969696969697 159.46969696969697 L 84.15853658536585 176.56150583244963 M 71.85135135135135 153.04054054054055 L 69.45043731778426 169.8469387755102 M 123.46969696969697 159.46969696969697 L 140 163.31395348837208 M 286.53767972235994 156.57635101636095 L 260.3114406779661 166.70921610169492 M 286.53767972235994 156.57635101636095 L 317.003582395087 178.86847492323437 M 254.31558441558442 161.8792207792208 L 260.3114406779661 166.70921610169492 M 260.3114406779661 166.70921610169492 L 255.6234309623431 193.6652719665272 M 199.5215053763441 152.20967741935485 L 174.56708268330732 198.99921996879874 M 351.3194181549954 153.33016006884515 L 344.9987801572242 169.55313092979128 M 60.86789297658863 175.40969899665552 L 0 166.71428571428572 M 140 163.31395348837208 L 169.9815039417829 198.17616737416617 M 84.15853658536585 176.56150583244963 L 69.45043731778426 169.8469387755102 M 84.15853658536585 176.56150583244963 L 91.41463414634146 186.34146341463415 M 69.45043731778426 169.8469387755102 L 60.86789297658863 175.40969899665552 M 91.41463414634146 186.34146341463415 L 136.40332805071316 211.3351822503962 M 91.41463414634146 186.34146341463415 L 80.75 229 M 60.86789297658863 175.40969899665552 L 54.019701810436636 232.93450479233226 M 344.9987801572242 169.55313092979128 L 400 211.17567567567568 M 343.1367781155015 170.91489361702128 L 317.003582395087 178.86847492323437 M 344.9987801572242 169.55313092979128 L 343.1367781155015 170.91489361702128 M 343.1367781155015 170.91489361702128 L 347.17391019450065 227.434742723009 M 317.003582395087 178.86847492323437 L 296.61407315561064 216.00650960942343 M 255.6234309623431 193.6652719665272 L 208.3015873015873 208.72222222222223 M 255.6234309623431 193.6652719665272 L 282.0026178010471 217.11343804537523 M 347.17391019450065 227.434742723009 L 400 230.27949084672866 M 208.3015873015873 208.72222222222223 L 253.4566126502875 252.32017773131207 M 347.17391019450065 227.434742723009 L 324.7015921749091 244.5811504890682 M 282.0026178010471 217.11343804537523 L 296.61407315561064 216.00650960942343 M 282.0026178010471 217.11343804537523 L 253.4566126502875 252.32017773131207 M 208.3015873015873 208.72222222222223 L 177.65092748735245 202.84401349072513 M 296.61407315561064 216.00650960942343 L 320.4392764857881 244.84754521963825 M 80.75 229 L 117.5340909090909 229 M 136.40332805071316 211.3351822503962 L 169.9815039417829 198.17616737416617 M 136.40332805071316 211.3351822503962 L 117.5340909090909 229 M 80.75 229 L 58.01531480431083 236.27509926262053 M 169.9815039417829 198.17616737416617 L 174.56708268330732 198.99921996879874 M 117.5340909090909 229 L 116.72265625 264.703125 M 54.019701810436636 232.93450479233226 L 0 225.5681818181818 M 174.56708268330732 198.99921996879874 L 177.65092748735245 202.84401349072513 M 177.65092748735245 202.84401349072513 L 180.84157105030891 268.2522065313327 M 54.019701810436636 232.93450479233226 L 58.01531480431083 236.27509926262053 M 342.6167877390282 257.81533877779714 L 400 266.44795060613893 M 342.6167877390282 257.81533877779714 L 324.7015921749091 244.5811504890682 M 58.01531480431083 236.27509926262053 L 63.83235170382836 271.70614219604545 M 342.6167877390282 257.81533877779714 L 347.94600503378507 296.20266331080995 M 324.7015921749091 244.5811504890682 L 320.4392764857881 244.84754521963825 M 320.4392764857881 244.84754521963825 L 299.80892143808256 284.5213049267643 M 116.72265625 264.703125 L 177.12947466294747 273.03509995351 M 253.4566126502875 252.32017773131207 L 253.3512367491166 259.1696113074205 M 116.72265625 264.703125 L 93.95758354755785 295.0565552699229 M 253.3512367491166 259.1696113074205 L 223.33589743589744 279.63461538461536 M 253.3512367491166 259.1696113074205 L 288.57851239669424 287.8429752066116 M 63.83235170382836 271.70614219604545 L 0 288.6029411764706 M 223.33589743589744 279.63461538461536 L 180.84157105030891 268.2522065313327 M 63.83235170382836 271.70614219604545 L 76.16655160510874 287.60355540214016 M 223.33589743589744 279.63461538461536 L 236.5625 329.234375 M 180.84157105030891 268.2522065313327 L 177.12947466294747 273.03509995351 M 169.21120689655172 297.4784482758621 L 96.8179723502304 299.6721826560536 M 347.94600503378507 296.20266331080995 L 400 286.08665605363774 M 177.12947466294747 273.03509995351 L 169.21120689655172 297.4784482758621 M 347.94600503378507 296.20266331080995 L 333.1949152542373 306.0367231638418 M 299.80892143808256 284.5213049267643 L 333.1949152542373 306.0367231638418 M 299.80892143808256 284.5213049267643 L 288.57851239669424 287.8429752066116 M 288.57851239669424 287.8429752066116 L 262.48275862068965 340.0344827586207 M 76.16655160510874 287.60355540214016 L 47.66998950682057 314.1348373557188 M 76.16655160510874 287.60355540214016 L 93.95758354755785 295.0565552699229 M 47.66998950682057 314.1348373557188 L 0 307.98387096774195 M 47.66998950682057 314.1348373557188 L 49.68532818532819 345.37258687258685 M 169.21120689655172 297.4784482758621 L 174.65384615384616 335.5769230769231 M 333.1949152542373 306.0367231638418 L 335.27262497127606 325.0823955700304 M 93.95758354755785 295.0565552699229 L 96.8179723502304 299.6721826560536 M 337.1917702196145 326.60208873064016 L 400 327.88541661722496 M 96.8179723502304 299.6721826560536 L 103.0171898355755 340.2488789237668 M 335.27262497127606 325.0823955700304 L 277.3236955810944 369.0417686357754 M 335.27262497127606 325.0823955700304 L 337.1917702196145 326.60208873064016 M 337.1917702196145 326.60208873064016 L 349.64793574837313 352.84526912367113 M 174.65384615384616 335.5769230769231 L 103.0171898355755 340.2488789237668 M 236.5625 329.234375 L 180.96913580246914 343.13271604938274 M 49.25 345.5 L 0 350.6842105263158 M 356.0582686640004 355.59382124866846 L 400 344.51192215290376 M 236.5625 329.234375 L 262.48275862068965 340.0344827586207 M 49.25 345.5 L 39.39655172413793 371.7758620689655 M 49.25 345.5 L 49.68532818532819 345.37258687258685 M 49.68532818532819 345.37258687258685 L 91.91773778920309 364.0334190231363 M 349.64793574837313 352.84526912367113 L 299.4142366051939 400 M 349.64793574837313 352.84526912367113 L 356.0582686640004 355.59382124866846 M 356.0582686640004 355.59382124866846 L 363.357527231491 400 M 39.39655172413793 371.7758620689655 L 90.19999999999999 400 M 39.39655172413793 371.7758620689655 L 0 381.625 M 174.65384615384616 335.5769230769231 L 180.96913580246914 343.13271604938274 M 103.0171898355755 340.2488789237668 L 91.91773778920309 364.0334190231363 M 262.48275862068965 340.0344827586207 L 277.3236955810944 369.0417686357754 M 180.96913580246914 343.13271604938274 L 178.1951219512195 400 M 91.91773778920309 364.0334190231363 L 94.9787234042553 400 M 277.3236955810944 369.0417686357754 L 280.5685136494161 400 M 0 381.625 L 0 400 M 0 400 L 90.19999999999999 400 M 299.4142366051939 400 L 363.357527231491 400 M 90.19999999999999 400 L 94.9787234042553 400 M 363.357527231491 400 L 400 400 M 400 400 L 400 344.51192215290376 M 0 350.6842105263158 L 0 381.625 M 178.1951219512195 400 L 280.5685136494161 400 M 94.9787234042553 400 L 178.1951219512195 400 M 280.5685136494161 400 L 299.4142366051939 400 M 400 344.51192215290376 L 400 327.88541661722496 M 0 307.98387096774195 L 0 350.6842105263158 M 400 327.88541661722496 L 400 286.08665605363774 M 0 288.6029411764706 L 0 307.98387096774195 M 400 286.08665605363774 L 400 266.44795060613893 M 0 225.5681818181818 L 0 288.6029411764706 M 400 266.44795060613893 L 400 230.27949084672866 M 400 230.27949084672866 L 400 211.17567567567568 M 0 166.71428571428572 L 0 225.5681818181818 M 400 211.17567567567568 L 400 133.2368125161633 M 0 127.34375 L 0 166.71428571428572 M 400 133.2368125161633 L 400 93.60943622846045 M 0 54.57258064516129 L 0 127.34375 M 139.43765127940284 0 L 107.96000000000001 0 M 350.1706127745989 0 L 311.98988292031095 0 M 241.7493602619312 0 L 139.43765127940284 0 M 400 93.60943622846045 L 400 0 M 400 0 L 350.1706127745989 0 M 311.98988292031095 0 L 241.7493602619312 0 M 107.96000000000001 0 L 65.9 0 M 65.9 0 L 0 0 M 0 0 L 0 54.57258064516129 " stroke="#f97316" stroke-width="2" stroke-opacity="0.3" fill="none"/></g></svg>